<?xml version="1.0" encoding="utf-8"?>
<!-- Generator: Adobe Illustrator 22.1.0, SVG Export Plug-In . SVG Version: 6.00 Build 0)  -->
<svg version="1.1" id="Layer_1" xmlns="http://www.w3.org/2000/svg" xmlns:xlink="http://www.w3.org/1999/xlink" x="0px" y="0px"
	 viewBox="0 0 500 500" style="enable-background:new 0 0 500 500;" xml:space="preserve">
<style type="text/css">
	.st0{display:none;fill:#FFFFFF;}
	.st1{display:none;}
	.st2{display:inline;fill:none;}
</style>
<path class="st0" d="M300.5,219.4"/>
<g class="st1">
	<polygon class="st2" points="235.4,226.6 238.3,226.6 238.3,226.6 235.4,226.6 	"/>
</g>
<path class="st0" d="M301.7,213.2"/>
<g>
	<path d="M200.1,173.7l-0.3-0.5c0,0,0,0,0,0L200.1,173.7c-7.2,8.5-11.5,19.5-11.5,31.5c0,8.1,2,15.8,5.5,22.6l-0.3,0.6c0,0,0,0,0,0
		l0.3-0.6l16.9-32.7L200.1,173.7z"/>
	<path d="M210.4,164.5C210.4,164.5,210.4,164.5,210.4,164.5c3.6,7.4,6.4,13.3,9,19.5h0.5c3-7.3,5.6-13,9.5-20.9l3.3-6.6l0.3-0.5
		c0,0,0,0,0,0l-0.3,0.5C224.5,157.3,216.9,160.1,210.4,164.5z"/>
	<path d="M242.6,254l0.2,0.5l0,0c0,0,0,0,0,0L242.6,254L231,230.3c-5.5-10.4-8.9-17.2-12.2-24.4h-0.3c-3,7.1-5.9,13.7-11.4,24.6
		l-4.3,9.2c8.9,9,21.2,14.6,34.8,14.6C239.2,254.2,241,254.1,242.6,254z"/>
	<path d="M258.8,195.7c-2.6,0-5.1,2.2-5.9,5.6c-0.1,0.6-0.3,1.2-0.3,1.8v4.3c0,0.7,0.1,1.3,0.2,1.8c0.7,3.1,3,5.3,5.8,5.3
		c4.1,0,6.5-3.9,6.5-9.6C265.2,200,262.9,195.7,258.8,195.7z"/>
	<path d="M285.6,214.7c-1.8-2.2-3-5.4-3-9.4c0-4.1,1.1-7.4,3-9.6c-3.8-19.4-19.1-34.7-38.5-38.6l-19.8,37l29.1,56.2
		C271.3,244.2,282.4,230.8,285.6,214.7z M274.5,181h3.9v36.6h-3.9V181z M259.4,218.2c-2.8,0-5.3-1.4-6.6-3.9h-0.1v13.5h-3.8v-27
		c0-3.2-0.1-5.8-0.2-8.1h3.5l0.2,4.3h0.1c1.6-3,4.1-4.8,7.6-4.8c5.2,0,9,5.1,9,12.7C269.1,213.7,264.4,218.2,259.4,218.2z"/>
</g>
<g>
	<path d="M293.2,192.1c-2.6,0-4.9,0.9-6.8,2.7c-0.1,0.1-0.3,0.3-0.4,0.4c-0.1,0.2-0.3,0.3-0.4,0.5c0.6,3.1,0.9,6.2,0.9,9.5
		s-0.3,6.4-0.9,9.5c0.1,0.2,0.3,0.3,0.4,0.5c0.1,0.2,0.3,0.3,0.4,0.4c1.7,1.6,4,2.5,6.4,2.5c5.1,0,10.6-4,10.6-13.2
		C303.5,197.3,299.3,192.1,293.2,192.1z M293,214.8c-2.6,0-4.7-1.9-5.7-4.9c-0.2-0.4-0.3-0.9-0.4-1.4c-0.2-1-0.4-2.1-0.4-3.3
		c0-1.1,0.1-2.3,0.4-3.4c0.1-0.5,0.2-0.9,0.4-1.4c0.9-2.8,2.8-4.9,5.8-4.9c4.6,0,6.4,5.4,6.4,9.6C299.5,210.7,296.7,214.8,293,214.8
		z"/>
	<path d="M318.4,192.1c-2.6,0-4.9,2.1-5.9,5.5h-0.2l-0.1-4.9h-3.4c0.1,2.3,0.2,4.8,0.2,7.8v17.1h3.8v-13.3c0-0.8,0.1-1.5,0.2-2.1
		c0.5-3.4,2.5-5.8,5.2-5.8c0.5,0,0.9,0,1.3,0.2v-4.3C319.1,192.2,318.8,192.1,318.4,192.1z"/>
	<path d="M340.8,203.8c0-4.6-1.9-11.7-8.8-11.7c-6.2,0-10,5.9-10,13.4c0,7.5,3.9,12.6,10.5,12.6c3.4,0,5.7-0.8,7.1-1.5l-0.7-3.2
		c-1.5,0.7-3.1,1.3-5.9,1.3c-3.9,0-7.2-2.5-7.3-8.6h15C340.7,205.5,340.8,204.8,340.8,203.8z M325.7,202.7c0.3-3.1,2-7.4,5.9-7.4
		c4.3,0,5.4,4.5,5.4,7.4H325.7z"/>
</g>
</svg>
