<svg xmlns="http://www.w3.org/2000/svg" viewBox="0 0 152.2 98.5"><defs><style>.cls-1{fill:#ec6565;}</style></defs><title>Layer 1</title><g id="Layer_2" data-name="Layer 2"><g id="Layer_1-2" data-name="Layer 1"><path class="cls-1" d="M11.5,17.7l-.3-.5h0l.3.5A48.55,48.55,0,0,0,0,49.2,49.32,49.32,0,0,0,5.5,71.8l-.3.6h0l.3-.6L22.4,39.1Z"/><path class="cls-1" d="M21.8,8.5h0c3.6,7.4,6.4,13.3,9,19.5h.5c3-7.3,5.6-13,9.5-20.9L44.1.5l.3-.5h0l-.3.5A48,48,0,0,0,21.8,8.5Z"/><path class="cls-1" d="M54,98l.2.5h0L54,98,42.4,74.3c-5.5-10.4-8.9-17.2-12.2-24.4h-.3C26.9,57,24,63.6,18.5,74.5l-4.3,9.2A48.81,48.81,0,0,0,49,98.3Z"/><path class="cls-1" d="M70.2,39.7c-2.6,0-5.1,2.2-5.9,5.6a11.27,11.27,0,0,0-.3,1.8v4.3a9,9,0,0,0,.2,1.8c.7,3.1,3,5.3,5.8,5.3,4.1,0,6.5-3.9,6.5-9.6C76.6,44,74.3,39.7,70.2,39.7Z"/><path class="cls-1" d="M97,58.7a14.66,14.66,0,0,1-3-9.4c0-4.1,1.1-7.4,3-9.6A49.18,49.18,0,0,0,58.5,1.1l-19.8,37L67.8,94.3A48.81,48.81,0,0,0,97,58.7ZM85.9,25h3.9V61.6H85.9ZM70.8,62.2a7.27,7.27,0,0,1-6.6-3.9h-.1V71.8H60.3v-27c0-3.2-.1-5.8-.2-8.1h3.5l.2,4.3h.1a8.25,8.25,0,0,1,7.6-4.8c5.2,0,9,5.1,9,12.7C80.5,57.7,75.8,62.2,70.8,62.2Z"/><path class="cls-1" d="M104.6,36.1a9.6,9.6,0,0,0-6.8,2.7l-.4.4c-.1.2-.3.3-.4.5a50.59,50.59,0,0,1,0,19c.1.2.3.3.4.5s.3.3.4.4a9.34,9.34,0,0,0,6.4,2.5c5.1,0,10.6-4,10.6-13.2C114.9,41.3,110.7,36.1,104.6,36.1Zm-.2,22.7c-2.6,0-4.7-1.9-5.7-4.9a5.73,5.73,0,0,1-.4-1.4,16.56,16.56,0,0,1-.4-3.3,13.17,13.17,0,0,1,.4-3.4,7.37,7.37,0,0,1,.4-1.4c.9-2.8,2.8-4.9,5.8-4.9,4.6,0,6.4,5.4,6.4,9.6C110.9,54.7,108.1,58.8,104.4,58.8Z"/><path class="cls-1" d="M129.8,36.1c-2.6,0-4.9,2.1-5.9,5.5h-.2l-.1-4.9h-3.4c.1,2.3.2,4.8.2,7.8V61.6h3.8V48.3a12.48,12.48,0,0,1,.2-2.1c.5-3.4,2.5-5.8,5.2-5.8a2.74,2.74,0,0,1,1.3.2V36.3A4.25,4.25,0,0,0,129.8,36.1Z"/><path class="cls-1" d="M152.2,47.8c0-4.6-1.9-11.7-8.8-11.7-6.2,0-10,5.9-10,13.4s3.9,12.6,10.5,12.6a15.64,15.64,0,0,0,7.1-1.5l-.7-3.2a12.57,12.57,0,0,1-5.9,1.3c-3.9,0-7.2-2.5-7.3-8.6h15C152.1,49.5,152.2,48.8,152.2,47.8Zm-15.1-1.1c.3-3.1,2-7.4,5.9-7.4,4.3,0,5.4,4.5,5.4,7.4Z"/></g></g></svg>